<mxfile host="app.diagrams.net" agent="Mozilla/5.0 (Windows NT 10.0; Win64; x64) AppleWebKit/537.36 (KHTML, like Gecko) Chrome/130.0.0.0 Safari/537.36" version="24.7.17">
  <diagram name="Page-1" id="E0LKCeUFe2-SklUSTfbt">
    <mxGraphModel dx="1434" dy="780" grid="1" gridSize="10" guides="1" tooltips="1" connect="1" arrows="1" fold="1" page="1" pageScale="1" pageWidth="850" pageHeight="1100" math="0" shadow="0">
      <root>
        <mxCell id="0" />
        <mxCell id="1" parent="0" />
        <object label="" id="eqILwH3eHfZX0_ep3NPD-1">
          <mxCell style="ellipse;whiteSpace=wrap;html=1;aspect=fixed;metaEdit=1;fontFamily=Times New Roman;" vertex="1" parent="1">
            <mxGeometry x="120" y="80" width="40" height="40" as="geometry" />
          </mxCell>
        </object>
        <mxCell id="eqILwH3eHfZX0_ep3NPD-2" value="&lt;b&gt;&lt;font style=&quot;font-size: 18px;&quot; face=&quot;Times New Roman&quot;&gt;A&lt;/font&gt;&lt;/b&gt;" style="text;html=1;align=center;verticalAlign=middle;resizable=0;points=[];autosize=1;strokeColor=none;fillColor=none;" vertex="1" parent="1">
          <mxGeometry x="120" y="80" width="40" height="40" as="geometry" />
        </mxCell>
        <mxCell id="eqILwH3eHfZX0_ep3NPD-3" value="&lt;b&gt;&lt;font style=&quot;font-size: 18px;&quot; face=&quot;Times New Roman&quot;&gt;A&lt;/font&gt;&lt;/b&gt;" style="text;html=1;align=center;verticalAlign=middle;resizable=0;points=[];autosize=1;strokeColor=none;fillColor=none;" vertex="1" parent="1">
          <mxGeometry x="180" y="80" width="40" height="40" as="geometry" />
        </mxCell>
        <mxCell id="eqILwH3eHfZX0_ep3NPD-4" value="&lt;font face=&quot;Times New Roman&quot;&gt;&lt;span style=&quot;font-size: 16px;&quot;&gt;&lt;b&gt;B&lt;/b&gt;&lt;/span&gt;&lt;/font&gt;" style="ellipse;whiteSpace=wrap;html=1;aspect=fixed;" vertex="1" parent="1">
          <mxGeometry x="180" y="80" width="40" height="40" as="geometry" />
        </mxCell>
        <mxCell id="eqILwH3eHfZX0_ep3NPD-5" value="" style="ellipse;whiteSpace=wrap;html=1;aspect=fixed;" vertex="1" parent="1">
          <mxGeometry x="330" y="80" width="40" height="40" as="geometry" />
        </mxCell>
        <mxCell id="eqILwH3eHfZX0_ep3NPD-6" value="&lt;h3&gt;&lt;font face=&quot;Times New Roman&quot; style=&quot;font-size: 16px;&quot;&gt;A&lt;/font&gt;&lt;/h3&gt;" style="ellipse;whiteSpace=wrap;html=1;aspect=fixed;" vertex="1" parent="1">
          <mxGeometry x="270" y="80" width="40" height="40" as="geometry" />
        </mxCell>
        <mxCell id="eqILwH3eHfZX0_ep3NPD-7" value="" style="ellipse;whiteSpace=wrap;html=1;aspect=fixed;" vertex="1" parent="1">
          <mxGeometry x="120" y="240" width="40" height="40" as="geometry" />
        </mxCell>
        <mxCell id="eqILwH3eHfZX0_ep3NPD-8" value="" style="ellipse;whiteSpace=wrap;html=1;aspect=fixed;" vertex="1" parent="1">
          <mxGeometry x="180" y="240" width="40" height="40" as="geometry" />
        </mxCell>
        <mxCell id="eqILwH3eHfZX0_ep3NPD-9" value="" style="ellipse;whiteSpace=wrap;html=1;aspect=fixed;" vertex="1" parent="1">
          <mxGeometry x="330" y="240" width="40" height="40" as="geometry" />
        </mxCell>
        <mxCell id="eqILwH3eHfZX0_ep3NPD-10" value="" style="ellipse;whiteSpace=wrap;html=1;aspect=fixed;" vertex="1" parent="1">
          <mxGeometry x="270" y="240" width="40" height="40" as="geometry" />
        </mxCell>
        <mxCell id="eqILwH3eHfZX0_ep3NPD-11" value="&lt;font face=&quot;Times New Roman&quot;&gt;&lt;span style=&quot;font-size: 16px;&quot;&gt;&lt;b&gt;B&lt;/b&gt;&lt;/span&gt;&lt;/font&gt;" style="ellipse;whiteSpace=wrap;html=1;aspect=fixed;" vertex="1" parent="1">
          <mxGeometry x="330" y="80" width="40" height="40" as="geometry" />
        </mxCell>
        <mxCell id="eqILwH3eHfZX0_ep3NPD-12" value="&lt;font face=&quot;Times New Roman&quot;&gt;&lt;span style=&quot;font-size: 16px;&quot;&gt;&lt;b&gt;B&lt;/b&gt;&lt;/span&gt;&lt;/font&gt;" style="ellipse;whiteSpace=wrap;html=1;aspect=fixed;" vertex="1" parent="1">
          <mxGeometry x="330" y="240" width="40" height="40" as="geometry" />
        </mxCell>
        <mxCell id="eqILwH3eHfZX0_ep3NPD-13" value="&lt;font face=&quot;Times New Roman&quot;&gt;&lt;span style=&quot;font-size: 16px;&quot;&gt;&lt;b&gt;B&lt;/b&gt;&lt;/span&gt;&lt;/font&gt;" style="ellipse;whiteSpace=wrap;html=1;aspect=fixed;" vertex="1" parent="1">
          <mxGeometry x="180" y="240" width="40" height="40" as="geometry" />
        </mxCell>
        <mxCell id="eqILwH3eHfZX0_ep3NPD-14" value="&lt;b&gt;&lt;font style=&quot;font-size: 18px;&quot; face=&quot;Times New Roman&quot;&gt;A&lt;/font&gt;&lt;/b&gt;" style="text;html=1;align=center;verticalAlign=middle;resizable=0;points=[];autosize=1;strokeColor=none;fillColor=none;" vertex="1" parent="1">
          <mxGeometry x="120" y="240" width="40" height="40" as="geometry" />
        </mxCell>
        <mxCell id="eqILwH3eHfZX0_ep3NPD-15" value="&lt;b&gt;&lt;font style=&quot;font-size: 18px;&quot; face=&quot;Times New Roman&quot;&gt;A&lt;/font&gt;&lt;/b&gt;" style="text;html=1;align=center;verticalAlign=middle;resizable=0;points=[];autosize=1;strokeColor=none;fillColor=none;" vertex="1" parent="1">
          <mxGeometry x="270" y="240" width="40" height="40" as="geometry" />
        </mxCell>
        <mxCell id="eqILwH3eHfZX0_ep3NPD-30" value="" style="edgeStyle=orthogonalEdgeStyle;rounded=0;orthogonalLoop=1;jettySize=auto;html=1;" edge="1" parent="1" source="eqILwH3eHfZX0_ep3NPD-16" target="eqILwH3eHfZX0_ep3NPD-2">
          <mxGeometry relative="1" as="geometry" />
        </mxCell>
        <mxCell id="eqILwH3eHfZX0_ep3NPD-16" value="&lt;font size=&quot;1&quot; face=&quot;Times New Roman&quot;&gt;&lt;b style=&quot;font-size: 16px;&quot;&gt;R&lt;/b&gt;&lt;/font&gt;" style="rounded=0;whiteSpace=wrap;html=1;" vertex="1" parent="1">
          <mxGeometry x="125" y="180" width="30" height="40" as="geometry" />
        </mxCell>
        <mxCell id="eqILwH3eHfZX0_ep3NPD-17" value="&lt;b&gt;&lt;font style=&quot;font-size: 16px;&quot; face=&quot;Times New Roman&quot;&gt;S&lt;/font&gt;&lt;/b&gt;" style="rounded=0;whiteSpace=wrap;html=1;" vertex="1" parent="1">
          <mxGeometry x="185" y="180" width="30" height="40" as="geometry" />
        </mxCell>
        <mxCell id="eqILwH3eHfZX0_ep3NPD-18" value="" style="rounded=0;whiteSpace=wrap;html=1;" vertex="1" parent="1">
          <mxGeometry x="275" y="180" width="30" height="40" as="geometry" />
        </mxCell>
        <mxCell id="eqILwH3eHfZX0_ep3NPD-19" value="" style="rounded=0;whiteSpace=wrap;html=1;" vertex="1" parent="1">
          <mxGeometry x="335" y="180" width="30" height="40" as="geometry" />
        </mxCell>
        <mxCell id="eqILwH3eHfZX0_ep3NPD-20" value="" style="rounded=0;whiteSpace=wrap;html=1;" vertex="1" parent="1">
          <mxGeometry x="125" y="340" width="30" height="40" as="geometry" />
        </mxCell>
        <mxCell id="eqILwH3eHfZX0_ep3NPD-21" value="" style="rounded=0;whiteSpace=wrap;html=1;" vertex="1" parent="1">
          <mxGeometry x="185" y="340" width="30" height="40" as="geometry" />
        </mxCell>
        <mxCell id="eqILwH3eHfZX0_ep3NPD-22" value="" style="rounded=0;whiteSpace=wrap;html=1;" vertex="1" parent="1">
          <mxGeometry x="275" y="340" width="30" height="40" as="geometry" />
        </mxCell>
        <mxCell id="eqILwH3eHfZX0_ep3NPD-23" value="" style="rounded=0;whiteSpace=wrap;html=1;" vertex="1" parent="1">
          <mxGeometry x="335" y="340" width="30" height="40" as="geometry" />
        </mxCell>
        <mxCell id="eqILwH3eHfZX0_ep3NPD-31" value="" style="edgeStyle=orthogonalEdgeStyle;rounded=0;orthogonalLoop=1;jettySize=auto;html=1;" edge="1" parent="1" source="eqILwH3eHfZX0_ep3NPD-24" target="eqILwH3eHfZX0_ep3NPD-6">
          <mxGeometry relative="1" as="geometry" />
        </mxCell>
        <mxCell id="eqILwH3eHfZX0_ep3NPD-24" value="&lt;font size=&quot;1&quot; face=&quot;Times New Roman&quot;&gt;&lt;b style=&quot;font-size: 16px;&quot;&gt;R&lt;/b&gt;&lt;/font&gt;" style="rounded=0;whiteSpace=wrap;html=1;" vertex="1" parent="1">
          <mxGeometry x="275" y="180" width="30" height="40" as="geometry" />
        </mxCell>
        <mxCell id="eqILwH3eHfZX0_ep3NPD-33" value="" style="edgeStyle=orthogonalEdgeStyle;rounded=0;orthogonalLoop=1;jettySize=auto;html=1;" edge="1" parent="1" source="eqILwH3eHfZX0_ep3NPD-25" target="eqILwH3eHfZX0_ep3NPD-14">
          <mxGeometry relative="1" as="geometry" />
        </mxCell>
        <mxCell id="eqILwH3eHfZX0_ep3NPD-25" value="&lt;font size=&quot;1&quot; face=&quot;Times New Roman&quot;&gt;&lt;b style=&quot;font-size: 16px;&quot;&gt;R&lt;/b&gt;&lt;/font&gt;" style="rounded=0;whiteSpace=wrap;html=1;" vertex="1" parent="1">
          <mxGeometry x="125" y="340" width="30" height="40" as="geometry" />
        </mxCell>
        <mxCell id="eqILwH3eHfZX0_ep3NPD-35" value="" style="edgeStyle=orthogonalEdgeStyle;rounded=0;orthogonalLoop=1;jettySize=auto;html=1;" edge="1" parent="1" source="eqILwH3eHfZX0_ep3NPD-26" target="eqILwH3eHfZX0_ep3NPD-15">
          <mxGeometry relative="1" as="geometry" />
        </mxCell>
        <mxCell id="eqILwH3eHfZX0_ep3NPD-26" value="&lt;font size=&quot;1&quot; face=&quot;Times New Roman&quot;&gt;&lt;b style=&quot;font-size: 16px;&quot;&gt;R&lt;/b&gt;&lt;/font&gt;" style="rounded=0;whiteSpace=wrap;html=1;" vertex="1" parent="1">
          <mxGeometry x="275" y="340" width="30" height="40" as="geometry" />
        </mxCell>
        <mxCell id="eqILwH3eHfZX0_ep3NPD-32" value="" style="edgeStyle=orthogonalEdgeStyle;rounded=0;orthogonalLoop=1;jettySize=auto;html=1;" edge="1" parent="1" source="eqILwH3eHfZX0_ep3NPD-27" target="eqILwH3eHfZX0_ep3NPD-11">
          <mxGeometry relative="1" as="geometry" />
        </mxCell>
        <mxCell id="eqILwH3eHfZX0_ep3NPD-27" value="&lt;b&gt;&lt;font style=&quot;font-size: 16px;&quot; face=&quot;Times New Roman&quot;&gt;S&lt;/font&gt;&lt;/b&gt;" style="rounded=0;whiteSpace=wrap;html=1;" vertex="1" parent="1">
          <mxGeometry x="335" y="180" width="30" height="40" as="geometry" />
        </mxCell>
        <mxCell id="eqILwH3eHfZX0_ep3NPD-34" value="" style="edgeStyle=orthogonalEdgeStyle;rounded=0;orthogonalLoop=1;jettySize=auto;html=1;" edge="1" parent="1" source="eqILwH3eHfZX0_ep3NPD-28" target="eqILwH3eHfZX0_ep3NPD-13">
          <mxGeometry relative="1" as="geometry" />
        </mxCell>
        <mxCell id="eqILwH3eHfZX0_ep3NPD-28" value="&lt;b&gt;&lt;font style=&quot;font-size: 16px;&quot; face=&quot;Times New Roman&quot;&gt;S&lt;/font&gt;&lt;/b&gt;" style="rounded=0;whiteSpace=wrap;html=1;" vertex="1" parent="1">
          <mxGeometry x="185" y="340" width="30" height="40" as="geometry" />
        </mxCell>
        <mxCell id="eqILwH3eHfZX0_ep3NPD-36" value="" style="edgeStyle=orthogonalEdgeStyle;rounded=0;orthogonalLoop=1;jettySize=auto;html=1;" edge="1" parent="1" source="eqILwH3eHfZX0_ep3NPD-29" target="eqILwH3eHfZX0_ep3NPD-12">
          <mxGeometry relative="1" as="geometry" />
        </mxCell>
        <mxCell id="eqILwH3eHfZX0_ep3NPD-29" value="&lt;b&gt;&lt;font style=&quot;font-size: 16px;&quot; face=&quot;Times New Roman&quot;&gt;S&lt;/font&gt;&lt;/b&gt;" style="rounded=0;whiteSpace=wrap;html=1;" vertex="1" parent="1">
          <mxGeometry x="335" y="340" width="30" height="40" as="geometry" />
        </mxCell>
        <mxCell id="eqILwH3eHfZX0_ep3NPD-37" value="" style="endArrow=classic;html=1;rounded=0;entryX=0.5;entryY=0;entryDx=0;entryDy=0;" edge="1" parent="1" target="eqILwH3eHfZX0_ep3NPD-25">
          <mxGeometry width="50" height="50" relative="1" as="geometry">
            <mxPoint x="200" y="280" as="sourcePoint" />
            <mxPoint x="150" y="330" as="targetPoint" />
          </mxGeometry>
        </mxCell>
        <mxCell id="eqILwH3eHfZX0_ep3NPD-38" value="" style="endArrow=classic;html=1;rounded=0;exitX=0.5;exitY=1;exitDx=0;exitDy=0;" edge="1" parent="1" source="eqILwH3eHfZX0_ep3NPD-12">
          <mxGeometry width="50" height="50" relative="1" as="geometry">
            <mxPoint x="340" y="290" as="sourcePoint" />
            <mxPoint x="290" y="340" as="targetPoint" />
            <Array as="points">
              <mxPoint x="290" y="340" />
            </Array>
          </mxGeometry>
        </mxCell>
        <mxCell id="eqILwH3eHfZX0_ep3NPD-39" value="" style="endArrow=classic;html=1;rounded=0;" edge="1" parent="1">
          <mxGeometry width="50" height="50" relative="1" as="geometry">
            <mxPoint x="290" y="280" as="sourcePoint" />
            <mxPoint x="350" y="340" as="targetPoint" />
          </mxGeometry>
        </mxCell>
      </root>
    </mxGraphModel>
  </diagram>
</mxfile>
